<?xml version="1.0" encoding="UTF-8"?>
<svg id="artwork" xmlns="http://www.w3.org/2000/svg" version="1.1" viewBox="0 0 238.96 70.87">
  <!-- Generator: Adobe Illustrator 29.8.3, SVG Export Plug-In . SVG Version: 2.1.1 Build 3)  -->
  <defs>
    <style>
      .st0 {
        fill: #4285f4;
      }

      .st1 {
        isolation: isolate;
      }

      .st2 {
        fill: #a6a6a6;
      }

      .st3 {
        fill: #34a853;
      }

      .st4 {
        fill: #fbbc04;
      }

      .st5 {
        fill: #fff;
      }

      .st6 {
        fill: #ea4335;
      }
    </style>
  </defs>
  <rect y="0" width="238.96" height="70.8" rx="8.85" ry="8.85"/>
  <path class="st2" d="M230.11,1.42c4.11,0,7.43,3.33,7.43,7.43v53.1c0,4.11-3.33,7.43-7.43,7.43H8.85c-4.11,0-7.43-3.33-7.43-7.43V8.85C1.42,4.74,4.74,1.42,8.85,1.42h221.26M230.11,0H8.85C3.98,0,0,3.98,0,8.85v53.1c0,4.87,3.98,8.85,8.85,8.85h221.26c4.87,0,8.85-3.98,8.85-8.85V8.85C238.96,3.98,234.98,0,230.11,0h0Z"/>
  <path class="st5" d="M120.61,19.82c-4.16,0-7.56,3.17-7.56,7.52s3.4,7.52,7.56,7.52,7.56-3.19,7.56-7.52-3.4-7.52-7.56-7.52ZM120.61,31.91c-2.28,0-4.25-1.88-4.25-4.57s1.96-4.57,4.25-4.57,4.25,1.86,4.25,4.57-1.96,4.57-4.25,4.57ZM104.12,19.82c-4.16,0-7.56,3.17-7.56,7.52s3.4,7.52,7.56,7.52,7.56-3.19,7.56-7.52-3.4-7.52-7.56-7.52ZM104.12,31.91c-2.28,0-4.25-1.88-4.25-4.57s1.96-4.57,4.25-4.57,4.25,1.86,4.25,4.57-1.96,4.57-4.25,4.57ZM84.5,22.13v3.19h7.65c-.23,1.81-.83,3.12-1.73,4.02-1.12,1.12-2.85,2.34-5.89,2.34-4.71,0-8.39-3.79-8.39-8.5s3.68-8.5,8.39-8.5c2.53,0,4.39.99,5.75,2.28l2.25-2.25c-1.91-1.82-4.44-3.22-8.02-3.22-6.44,0-11.86,5.24-11.86,11.7s5.42,11.7,11.86,11.7c3.49,0,6.11-1.13,8.16-3.27,2.11-2.11,2.76-5.08,2.76-7.47,0-.74-.05-1.43-.18-2h-10.74v-.02ZM164.71,24.62c-.62-1.68-2.53-4.8-6.44-4.8s-7.1,3.04-7.1,7.52c0,4.21,3.19,7.52,7.47,7.52,3.45,0,5.45-2.11,6.27-3.33l-2.57-1.72c-.85,1.26-2.02,2.09-3.7,2.09s-2.89-.78-3.65-2.28l10.07-4.16-.34-.85s-.02,0-.02,0ZM154.44,27.12c-.09-2.9,2.25-4.39,3.93-4.39,1.31,0,2.43.65,2.8,1.59l-6.73,2.8ZM146.26,34.43h3.31V12.3h-3.31v22.13ZM140.85,21.51h-.11c-.74-.89-2.16-1.68-3.96-1.68-3.77,0-7.22,3.31-7.22,7.56s3.45,7.51,7.22,7.51c1.81,0,3.22-.8,3.96-1.72h.11v1.08c0,2.89-1.54,4.43-4.02,4.43-2.02,0-3.27-1.45-3.79-2.67l-2.89,1.2c.83,2,3.03,4.44,6.67,4.44,3.88,0,7.15-2.28,7.15-7.84v-13.52h-3.13s0,1.22,0,1.22ZM137.04,31.91c-2.28,0-4.2-1.91-4.2-4.53s1.91-4.58,4.2-4.58,4.02,1.95,4.02,4.58-1.77,4.53-4.02,4.53ZM180.21,12.3h-7.91v22.13h3.31v-8.39h4.62c3.66,0,7.26-2.66,7.26-6.87s-3.59-6.87-7.26-6.87h-.02ZM180.28,22.96h-4.69v-7.59h4.69c2.48,0,3.88,2.05,3.88,3.79s-1.4,3.79-3.88,3.79h0v.02ZM200.71,19.79c-2.39,0-4.87,1.06-5.89,3.38l2.94,1.22c.62-1.22,1.79-1.63,3.01-1.63,1.7,0,3.45,1.03,3.47,2.85v.23c-.6-.34-1.88-.85-3.45-.85-3.17,0-6.37,1.73-6.37,4.97,0,2.96,2.58,4.87,5.49,4.87,2.21,0,3.45-.99,4.21-2.16h.11v1.72h3.19v-8.48c0-3.93-2.94-6.12-6.73-6.12h.04ZM200.3,31.91c-1.08,0-2.58-.55-2.58-1.88,0-1.7,1.88-2.35,3.5-2.35,1.45,0,2.14.32,3.01.74-.25,2.05-2.02,3.5-3.93,3.5h0v-.02ZM219.03,20.27l-3.79,9.59h-.11l-3.93-9.59h-3.56l5.89,13.42-3.36,7.45h3.45l9.08-20.87h-3.68ZM189.29,34.43h3.31V12.3h-3.31v22.13Z"/>
  <g>
    <path class="st6" d="M36.68,34.37l-18.85,20h0c.58,2.18,2.57,3.77,4.92,3.77.94,0,1.82-.25,2.58-.71l.05-.04,21.21-12.23-9.93-10.82h.02v.02Z"/>
    <path class="st4" d="M55.74,30.98h0l-9.15-5.33-10.32,9.19,10.35,10.35,9.12-5.26c1.59-.87,2.67-2.55,2.67-4.48s-1.06-3.61-2.66-4.46h0l-.02-.02Z"/>
    <path class="st0" d="M17.82,16.43c-.11.42-.18.85-.18,1.31v35.35c0,.46.05.89.18,1.31l19.49-19.49s-19.49-18.48-19.49-18.48Z"/>
    <path class="st3" d="M36.82,35.4l9.75-9.75-21.19-12.28c-.76-.46-1.66-.73-2.64-.73-2.35,0-4.34,1.61-4.92,3.77h0l18.99,18.98h0v.02Z"/>
  </g>
  <g class="st1">
    <path class="st5" d="M80.01,46.57c.87.51,1.56,1.2,2.05,2.09s.74,1.86.74,2.96-.25,2.07-.74,2.96-1.19,1.58-2.05,2.09-1.84.76-2.92.76c-.9,0-1.73-.18-2.5-.53s-1.42-.85-1.93-1.47l1.22-1.19c.41.48.89.87,1.43,1.13.55.27,1.13.41,1.77.41s1.27-.14,1.84-.41c.57-.27,1.04-.67,1.42-1.17.37-.51.62-1.1.73-1.79h-5.01v-1.56h5.01c-.11-.67-.34-1.27-.73-1.79s-.85-.9-1.42-1.17-1.19-.41-1.84-.41c-.6,0-1.15.12-1.63.35-.5.23-.92.57-1.27.99l-1.2-1.19c.51-.58,1.12-1.03,1.82-1.35.69-.32,1.47-.48,2.3-.48,1.08,0,2.05.25,2.92.76l-.02-.02Z"/>
  </g>
  <g class="st1">
    <path class="st5" d="M83.99,49.26h1.7v3.13h3.81v-3.13h1.7v7.89h-1.7v-3.17h-3.81v3.17h-1.7v-7.89Z"/>
    <path class="st5" d="M92.24,55.63h.87c.23-.3.41-.78.57-1.45.14-.67.23-1.36.23-2.07v-2.85h6.5v6.39h1.2v3.88h-1.58v-2.35h-6.2v2.35h-1.58v-3.88l-.02-.02ZM98.73,55.63v-4.85h-3.17v1.45c0,.6-.05,1.2-.18,1.81-.12.58-.28,1.12-.5,1.59h3.86-.02Z"/>
    <path class="st5" d="M103.43,56.8c-.6-.39-1.03-.92-1.31-1.59l1.42-.64c.39.9,1.1,1.35,2.11,1.35.58,0,1.1-.18,1.54-.55.44-.37.73-.87.85-1.5h-3.38v-1.29h3.38c-.11-.64-.39-1.15-.83-1.52s-.96-.57-1.56-.57c-.48,0-.9.11-1.24.34-.35.21-.6.55-.78.97l-1.43-.6c.27-.67.67-1.22,1.26-1.61s1.29-.58,2.18-.58c.78,0,1.49.18,2.11.55.62.35,1.1.87,1.43,1.49.34.64.51,1.36.51,2.16s-.18,1.52-.51,2.16-.81,1.13-1.43,1.49-1.31.55-2.11.55c-.85,0-1.58-.19-2.18-.6l-.02.02Z"/>
    <path class="st5" d="M111.51,56.8c-.6-.39-1.03-.92-1.31-1.59l1.42-.64c.39.9,1.1,1.35,2.11,1.35.58,0,1.1-.18,1.54-.55.44-.37.73-.87.85-1.5h-3.38v-1.29h3.38c-.11-.64-.39-1.15-.83-1.52s-.96-.57-1.56-.57c-.48,0-.9.11-1.24.34-.35.21-.6.55-.78.97l-1.43-.6c.27-.67.67-1.22,1.26-1.61s1.29-.58,2.18-.58c.78,0,1.49.18,2.11.55.62.35,1.1.87,1.43,1.49.34.64.51,1.36.51,2.16s-.18,1.52-.51,2.16-.81,1.13-1.43,1.49-1.31.55-2.11.55c-.85,0-1.58-.19-2.18-.6l-.02.02Z"/>
    <path class="st5" d="M120.38,56.85c-.62-.35-1.12-.87-1.45-1.49-.35-.64-.51-1.36-.51-2.16s.18-1.52.51-2.16c.35-.64.83-1.13,1.45-1.49s1.33-.55,2.11-.55c.87,0,1.61.19,2.21.58s1.04.92,1.29,1.59l-1.56.65c-.35-.83-1.01-1.26-2-1.26-.42,0-.81.11-1.17.32-.35.21-.64.53-.85.92s-.32.85-.32,1.36.11.97.32,1.38.5.71.85.92c.35.21.74.32,1.17.32.5,0,.92-.11,1.27-.34.35-.23.62-.53.81-.96l1.54.67c-.3.67-.76,1.2-1.36,1.59s-1.35.58-2.21.58c-.78,0-1.49-.18-2.11-.55v.04Z"/>
    <path class="st5" d="M131.18,57.07c-.44-.23-.8-.53-1.04-.94s-.37-.87-.37-1.38c0-.81.3-1.47.92-1.93.62-.48,1.4-.71,2.34-.71.46,0,.89.05,1.26.12.37.09.67.18.89.28v-.41c0-.48-.18-.89-.55-1.19-.35-.3-.83-.46-1.4-.46-.41,0-.78.09-1.13.27-.35.18-.64.42-.87.73l-1.19-.92c.35-.48.81-.87,1.36-1.13.55-.27,1.19-.41,1.86-.41,1.15,0,2.04.28,2.66.85s.94,1.36.94,2.37v4.92h-1.68v-.94h-.07c-.23.34-.55.62-.96.85s-.89.34-1.43.34-1.08-.11-1.52-.34v.02ZM134.1,55.7c.34-.19.58-.46.78-.8.18-.34.28-.69.28-1.06-.23-.14-.51-.25-.83-.32-.32-.09-.64-.12-.99-.12-.64,0-1.12.12-1.42.37-.3.25-.44.58-.44.99,0,.35.14.65.42.89.28.23.64.35,1.08.35.41,0,.78-.11,1.12-.3Z"/>
    <path class="st5" d="M138.23,49.26h3.95c.46,0,.87.09,1.24.27.37.18.67.42.87.74.21.32.32.67.32,1.04,0,.41-.09.76-.27,1.04-.18.3-.42.51-.73.67v.09c.39.16.71.39.94.69s.34.67.34,1.06c0,.44-.12.83-.35,1.19-.23.35-.53.62-.92.8-.39.18-.8.28-1.22.28h-4.16v-7.89.02ZM142,52.47c.27,0,.5-.09.67-.25.18-.18.27-.39.27-.64s-.09-.48-.27-.64c-.18-.18-.41-.25-.67-.25h-2.11v1.79h2.11v-.02ZM142.23,55.72c.28,0,.53-.09.73-.28.19-.18.3-.42.3-.69s-.11-.51-.3-.71-.44-.28-.73-.28h-2.34v1.96h2.34Z"/>
  </g>
  <g class="st1">
    <path class="st5" d="M146.97,57.07c-.44-.23-.8-.53-1.04-.94s-.37-.87-.37-1.38c0-.81.3-1.47.92-1.93.62-.48,1.4-.71,2.34-.71.46,0,.89.05,1.26.12.37.09.67.18.89.28v-.41c0-.48-.18-.89-.55-1.19-.35-.3-.83-.46-1.4-.46-.41,0-.78.09-1.13.27-.35.18-.64.42-.87.73l-1.19-.92c.35-.48.81-.87,1.36-1.13.55-.27,1.19-.41,1.86-.41,1.15,0,2.04.28,2.66.85s.94,1.36.94,2.37v4.92h-1.68v-.94h-.07c-.23.34-.55.62-.96.85s-.89.34-1.43.34-1.08-.11-1.52-.34v.02ZM149.91,55.7c.34-.19.58-.46.78-.8.18-.34.28-.69.28-1.06-.23-.14-.51-.25-.83-.32-.32-.09-.64-.12-.99-.12-.64,0-1.12.12-1.42.37-.3.25-.44.58-.44.99,0,.35.14.65.42.89.28.23.64.35,1.08.35.41,0,.78-.11,1.12-.3Z"/>
  </g>
  <g class="st1">
    <path class="st5" d="M154.92,57.07c-.44-.23-.8-.53-1.04-.94s-.37-.87-.37-1.38c0-.81.3-1.47.92-1.93.62-.48,1.4-.71,2.34-.71.46,0,.89.05,1.26.12.37.09.67.18.89.28v-.41c0-.48-.18-.89-.55-1.19-.35-.3-.83-.46-1.4-.46-.41,0-.78.09-1.13.27-.35.18-.64.42-.87.73l-1.19-.92c.35-.48.81-.87,1.36-1.13.55-.27,1.19-.41,1.86-.41,1.15,0,2.04.28,2.66.85s.94,1.36.94,2.37v4.92h-1.68v-.94h-.07c-.23.34-.55.62-.96.85s-.89.34-1.43.34-1.08-.11-1.52-.34v.02ZM157.86,55.7c.34-.19.58-.46.78-.8.18-.34.28-.69.28-1.06-.23-.14-.51-.25-.83-.32-.32-.09-.64-.12-.99-.12-.64,0-1.12.12-1.42.37-.3.25-.44.58-.44.99,0,.35.14.65.42.89.28.23.64.35,1.08.35.41,0,.78-.11,1.12-.3Z"/>
    <path class="st5" d="M161.91,49.26h1.63v1.04h.07c.23-.35.57-.67,1.01-.92s.94-.37,1.5-.37c.71,0,1.36.18,1.93.55.58.35,1.03.87,1.36,1.49.34.64.51,1.36.51,2.16s-.18,1.52-.51,2.16-.8,1.13-1.36,1.49c-.58.35-1.22.55-1.93.55-.55,0-1.06-.12-1.5-.37s-.78-.55-1.01-.9h-.07l.07,1.1v3.27h-1.7v-11.24ZM167.04,55.51c.35-.21.65-.53.87-.92.21-.41.32-.87.32-1.38s-.11-.97-.32-1.36-.51-.71-.87-.92-.74-.32-1.17-.32-.8.11-1.15.32c-.35.21-.64.53-.87.92-.21.39-.32.85-.32,1.36s.11.97.32,1.38.51.71.87.92.74.32,1.15.32.8-.11,1.17-.32Z"/>
    <path class="st5" d="M171.98,57.07c-.44-.23-.8-.53-1.04-.94s-.37-.87-.37-1.38c0-.81.3-1.47.92-1.93.62-.48,1.4-.71,2.34-.71.46,0,.89.05,1.26.12.37.09.67.18.89.28v-.41c0-.48-.18-.89-.55-1.19-.35-.3-.83-.46-1.4-.46-.41,0-.78.09-1.13.27-.35.18-.64.42-.87.73l-1.19-.92c.35-.48.81-.87,1.36-1.13.55-.27,1.19-.41,1.86-.41,1.15,0,2.04.28,2.66.85s.94,1.36.94,2.37v4.92h-1.68v-.94h-.07c-.23.34-.55.62-.96.85s-.89.34-1.43.34-1.08-.11-1.52-.34v.02ZM174.9,55.7c.34-.19.58-.46.78-.8.18-.34.28-.69.28-1.06-.23-.14-.51-.25-.83-.32-.32-.09-.64-.12-.99-.12-.64,0-1.12.12-1.42.37-.3.25-.44.58-.44.99,0,.35.14.65.42.89.28.23.64.35,1.08.35.41,0,.78-.11,1.12-.3Z"/>
    <path class="st5" d="M179.03,49.26h1.7v3.86l-.07,1.49h.07l3.72-5.35h1.7v7.89h-1.7v-3.86l.07-1.49h-.07l-3.72,5.35h-1.7v-7.89ZM181.61,47.56c-.32-.18-.58-.42-.76-.73-.19-.32-.28-.65-.28-1.03h1.29c0,.21.07.41.21.57s.34.25.57.25.41-.07.55-.25c.14-.16.21-.35.21-.57h1.26c0,.39-.09.73-.28,1.03-.19.3-.44.55-.74.73s-.64.27-.99.27-.69-.09-1.01-.27h-.02Z"/>
    <path class="st5" d="M187.89,51.16c-.23-.23-.35-.51-.35-.85s.12-.62.35-.85.51-.35.85-.35.62.12.85.35.35.51.35.85-.12.62-.35.85-.51.35-.85.35-.62-.12-.85-.35ZM187.89,56.8c-.23-.23-.35-.51-.35-.85s.12-.6.35-.83.51-.34.85-.34.62.11.85.34c.23.23.35.51.35.83s-.12.62-.35.85-.51.35-.85.35-.62-.12-.85-.35Z"/>
  </g>
</svg>